<mxfile host="65bd71144e">
    <diagram id="neL44oRjK5zxVdb9nWQi" name="Page-1">
        <mxGraphModel dx="926" dy="613" grid="1" gridSize="10" guides="1" tooltips="1" connect="1" arrows="1" fold="1" page="1" pageScale="1" pageWidth="850" pageHeight="1100" math="0" shadow="0">
            <root>
                <mxCell id="0"/>
                <mxCell id="1" parent="0"/>
                <mxCell id="133" value="Configure Ingestion System" style="strokeWidth=1;shadow=0;dashed=0;align=center;html=1;shape=mxgraph.mockup.containers.window;align=left;verticalAlign=top;spacingLeft=8;strokeColor2=#008cff;strokeColor3=#c4c4c4;fontColor=#666666;mainText=;fontSize=17;labelBackgroundColor=none;whiteSpace=wrap;" parent="1" vertex="1">
                    <mxGeometry x="50" y="90" width="530" height="400" as="geometry"/>
                </mxCell>
                <mxCell id="134" value="Confirm" style="strokeWidth=1;shadow=0;dashed=0;align=center;html=1;shape=mxgraph.mockup.buttons.button;strokeColor=#2D7600;fontColor=#ffffff;mainText=;buttonStyle=round;fontSize=17;fontStyle=1;fillColor=#60a917;whiteSpace=wrap;" parent="1" vertex="1">
                    <mxGeometry x="240" y="429" width="150" height="50" as="geometry"/>
                </mxCell>
                <mxCell id="151" value="Minimum # of records to start with :" style="text;html=1;strokeColor=none;fillColor=none;align=left;verticalAlign=middle;whiteSpace=wrap;rounded=0;" parent="1" vertex="1">
                    <mxGeometry x="80" y="239" width="210" height="30" as="geometry"/>
                </mxCell>
                <mxCell id="152" value="&lt;i&gt;&lt;font&gt;10000&lt;/font&gt;&lt;/i&gt;" style="rounded=0;whiteSpace=wrap;html=1;fontColor=#000000;" parent="1" vertex="1">
                    <mxGeometry x="290" y="246.5" width="190" height="15" as="geometry"/>
                </mxCell>
                <mxCell id="154" value="Max # of missing samples :" style="text;html=1;strokeColor=none;fillColor=none;align=left;verticalAlign=middle;whiteSpace=wrap;rounded=0;" parent="1" vertex="1">
                    <mxGeometry x="80" y="279" width="210" height="30" as="geometry"/>
                </mxCell>
                <mxCell id="155" value="&lt;i&gt;&lt;font&gt;100&lt;/font&gt;&lt;/i&gt;" style="rounded=0;whiteSpace=wrap;html=1;fontColor=#000000;" parent="1" vertex="1">
                    <mxGeometry x="290" y="286.5" width="190" height="15" as="geometry"/>
                </mxCell>
                <mxCell id="158" value="Evaluation system IP address :" style="text;html=1;strokeColor=none;fillColor=none;align=left;verticalAlign=middle;whiteSpace=wrap;rounded=0;" parent="1" vertex="1">
                    <mxGeometry x="80" y="319" width="210" height="30" as="geometry"/>
                </mxCell>
                <mxCell id="159" value="&lt;i style=&quot;border-color: var(--border-color);&quot;&gt;&lt;font style=&quot;border-color: var(--border-color);&quot;&gt;192.168.1.11&lt;/font&gt;&lt;/i&gt;" style="rounded=0;whiteSpace=wrap;html=1;fontColor=#000000;" parent="1" vertex="1">
                    <mxGeometry x="290" y="326.5" width="190" height="15" as="geometry"/>
                </mxCell>
                <mxCell id="160" value="Preparation system IP address :" style="text;html=1;strokeColor=none;fillColor=none;align=left;verticalAlign=middle;whiteSpace=wrap;rounded=0;" parent="1" vertex="1">
                    <mxGeometry x="80" y="359" width="210" height="30" as="geometry"/>
                </mxCell>
                <mxCell id="161" value="&lt;i style=&quot;border-color: var(--border-color);&quot;&gt;&lt;font style=&quot;border-color: var(--border-color);&quot;&gt;192.168.1.12&lt;/font&gt;&lt;/i&gt;" style="rounded=0;whiteSpace=wrap;html=1;fontColor=#000000;" parent="1" vertex="1">
                    <mxGeometry x="290" y="366.5" width="190" height="15" as="geometry"/>
                </mxCell>
                <mxCell id="162" value="" style="group" parent="1" vertex="1" connectable="0">
                    <mxGeometry x="180" y="150" width="300" height="60" as="geometry"/>
                </mxCell>
                <mxCell id="163" value="Number of Cars" style="whiteSpace=wrap;html=1;" parent="162" vertex="1">
                    <mxGeometry width="100" height="30" as="geometry"/>
                </mxCell>
                <mxCell id="164" value="Cars' Typology" style="whiteSpace=wrap;html=1;" parent="162" vertex="1">
                    <mxGeometry x="100" width="100" height="30" as="geometry"/>
                </mxCell>
                <mxCell id="165" value="Mean Age" style="whiteSpace=wrap;html=1;" parent="162" vertex="1">
                    <mxGeometry x="200" width="100" height="30" as="geometry"/>
                </mxCell>
                <mxCell id="166" value="300" style="whiteSpace=wrap;html=1;" parent="162" vertex="1">
                    <mxGeometry y="30" width="100" height="30" as="geometry"/>
                </mxCell>
                <mxCell id="167" value="medium" style="whiteSpace=wrap;html=1;" parent="162" vertex="1">
                    <mxGeometry x="100" y="30" width="100" height="30" as="geometry"/>
                </mxCell>
                <mxCell id="168" value="31" style="whiteSpace=wrap;html=1;" parent="162" vertex="1">
                    <mxGeometry x="200" y="30" width="100" height="30" as="geometry"/>
                </mxCell>
                <mxCell id="169" value="&lt;b&gt;&lt;font style=&quot;font-size: 15px;&quot;&gt;Criteria&lt;/font&gt;&lt;/b&gt;" style="text;html=1;align=center;verticalAlign=middle;resizable=0;points=[];autosize=1;strokeColor=none;fillColor=none;" parent="1" vertex="1">
                    <mxGeometry x="90" y="165" width="80" height="30" as="geometry"/>
                </mxCell>
            </root>
        </mxGraphModel>
    </diagram>
</mxfile>